<svg viewBox="0 0 32 32" xmlns="http://www.w3.org/2000/svg" stroke='#fff' stroke-width="1.3" fill='#fff'><path   d="m16 5c-2.2 0-4 1.8-4 4s1.8 4 4 4 4-1.8 4-4-1.8-4-4-4zm0 8h-1.380859c-1.8 0-3.450078.979531-4.330079 2.519531.710001.08 1.330469.459766 1.730469 1.009766.52-.94 1.50961-1.529297 2.59961-1.529297h2.761718c.44 0 .848516.089766 1.228516.259766.21-.69.711562-1.239297 1.351563-1.529297-.760001-.47-1.650079-.730469-2.580079-.730469zm0-6c1.12 0 2 .88 2 2s-.88 2-2 2-2-.88-2-2 .88-2 2-2zm5 8a1 1 0 0 0 0 2 1 1 0 0 0 0-2zm-11 2a1 1 0 0 0 0 2 1 1 0 0 0 0-2zm12.730469.810547c-.45.43-1.060469.689453-1.730469.689453-.05 0-.110156.000234-.160156-.009766l1.25 2.919922.189453.470703.53125.089844 5 1 .378906-1.941406-4.46875-.910156zm-7.730469.189453a1 1 0 0 0 0 2 1 1 0 0 0 0-2zm-6.6308594 1.900391-.0898437.21875-4.46875.910156.3789062 1.941406 5-1 .53125-.089844.1894531-.470703.4003908-.929687c-.1.01-.210547.019531-.310547.019531-.62 0-1.2008594-.229609-1.6308594-.599609zm9.6308594 1.099609a1 1 0 0 0 0 2 1 1 0 0 0 0-2zm-16 4v2h28v-2z"/></svg>