<svg viewBox="0 0 72 72" xmlns="http://www.w3.org/2000/svg"><g fill="none" stroke="#fff" stroke-linecap="round"><path d="m41.8399 16.6916-2.4115 7.5175" stroke-miterlimit="10" stroke-width="6"/><path d="m28.6898 15.8364 2.4677 7.9992" stroke-miterlimit="10" stroke-width="2"/><path d="m17.1486 23.0523 7.3919 5.2471" stroke-miterlimit="10" stroke-width="2"/><path d="m14.7102 36.2342 7.8948-.0296" stroke-miterlimit="10" stroke-width="2"/><path d="m18.4115 48.696 6.3696-4.6643" stroke-miterlimit="10" stroke-width="2"/><path d="m29.1353 55.3084 2.9115-8.0175" stroke-miterlimit="10" stroke-width="2"/><path d="m42.2854 56.1636-1.9677-6.9992" stroke-miterlimit="10" stroke-width="2"/><path d="m52.839 48.3171-5.9043-4.6165" stroke-miterlimit="10" stroke-width="2"/><path d="m57.765 35.7658-8.8948.0296" stroke-miterlimit="10" stroke-width="2"/><path d="m53.5637 23.304-7.3696 5.1643" stroke-miterlimit="10" stroke-width="2"/><path d="m50.4876 36a15 15 0 1 1 -15-15 15 15 0 0 1 15 15z" stroke-linejoin="round" stroke-width="2"/><path d="m38.983 15.497 5.915 1.923h-3.292z" stroke-linejoin="round" stroke-width="1.5"/><path d="m30.592 14.628-4.622 1.326 2.834.161z" stroke-linejoin="round" stroke-width="1.5"/><path d="m15.303 25.328 3.181-5.186-.559 3.454z" stroke-linejoin="round" stroke-width="1.5"/><path d="m13.933 38.166.025-4.065 1.191 2.033z" stroke-linejoin="round" stroke-width="1.5"/><path d="m19.549 51.064-3.184-3.754 2.564 1.007z" stroke-linejoin="round" stroke-width="1.5"/><path d="m31.612 57.008-5.915-1.922 3.456.233z" stroke-linejoin="round" stroke-width="1.5"/><path d="m45.005 55.546-5.121 1.826 2.258-1.643z" stroke-linejoin="round" stroke-width="1.5"/><path d="m54.382 46.814-2.68 3.686.827-2.425z" stroke-linejoin="round" stroke-width="1.5"/><path d="m58.018 38.899.024-6.065-.855 2.932z" stroke-linejoin="round" stroke-width="1.5"/><path d="m52.016 20.787 3.449 4.628-2.302-1.833z" stroke-linejoin="round" stroke-width="1.5"/></g><circle cx="42.6545" cy="32.4903" r="1.25"/><circle cx="28.6545" cy="29.4903" r="1.25"/><circle cx="35.6545" cy="28.4903" r="1.25"/><circle cx="37.6545" cy="44.4903" r="1.25"/><circle cx="31.6545" cy="34.7403" r="2"/><circle cx="31.1545" cy="41.7403" r="2"/><circle cx="39.6545" cy="37.7403" r="3"/></svg>